<?xml version="1.0" encoding="utf-8" ?>
<svg xmlns="http://www.w3.org/2000/svg" xmlns:xlink="http://www.w3.org/1999/xlink" width="514" height="514">
	<path fill="#8E0AF0" transform="scale(1.00391 1.00391)" d="M303.28 411.939C294.78 415.2 262.42 421.448 256.427 417.849C252.486 415.482 253.536 409.637 257.899 408.656C261.769 407.784 267.736 408.231 272.015 407.844C280.817 407.049 289.237 405.286 297.817 403.205C295.261 406.074 273.044 408.449 268.167 408.787C264.82 409.02 260.582 408.174 257.459 409.409C252.03 411.555 254.07 418.61 263.087 418.272C273.209 417.893 282.876 416.377 292.741 414.209C295.498 413.603 300.64 411.657 303.28 411.939Z"/>
	<path fill="#D400F1" transform="scale(1.00391 1.00391)" d="M216.16 62.3254C219.403 61.7829 221.125 65.0463 221.84 67.659C219.898 73.7835 212.364 73.3587 207.015 74.7084C202.805 75.7704 198.682 77.1505 194.531 78.4183C188.669 80.0399 186.599 71.5742 191.623 68.9146C196.124 66.5321 210.582 63.3219 216.16 62.3254Z"/>
	<path fill="#8E0AF0" transform="scale(1.00391 1.00391)" d="M201.981 444.639C200.362 442.723 194.845 443.236 193.403 440.514C193.064 439.873 195.595 436.48 196.092 433.711C198.786 432.549 202.945 436.195 206.147 435.514C228.085 440.854 242.529 441.729 264.23 442.255C264.89 442.565 267.198 442.457 265.839 442.967C263.88 443.702 263.171 448.36 263.264 450.084C265.721 451.951 270.211 449.65 272.943 451.203C272.117 451.639 270.917 451.366 269.963 451.724L269.781 452.072C270.309 452.141 270.748 452.203 271.263 452.348C251.241 451.729 219.153 452.681 201.981 444.639Z"/>
	<path fill="#2400EE" transform="scale(1.00391 1.00391)" d="M297.817 403.205C344.607 389.839 387.351 351.239 401.354 303.965C402.769 299.187 403.558 282.969 412.474 287.87C416.418 290.038 414.262 295.952 413.412 299.244C401.829 344.094 368.871 381.956 327.715 402.4C320.592 405.938 311.12 410.665 303.28 411.939C300.64 411.657 295.498 413.603 292.741 414.209C282.876 416.377 273.209 417.893 263.087 418.272C254.07 418.61 252.03 411.555 257.459 409.409C260.582 408.174 264.82 409.02 268.167 408.787C273.044 408.449 295.261 406.074 297.817 403.205Z"/>
	<path fill="#D400F1" transform="scale(1.00391 1.00391)" d="M249.889 92.2774C253.506 92.1077 258.037 92.2094 257.952 97.0175C257.841 103.317 250.418 102.192 246.142 102.345C169.303 105.102 107.942 169.836 101.773 244.809C101.434 248.92 102.258 255.52 99.0503 258.624C80.8612 264.052 98.9236 207.485 101.18 201.206C122.921 140.694 184.468 91.6924 249.889 92.2774Z"/>
	<defs>
		<linearGradient id="gradient_0" gradientUnits="userSpaceOnUse" x1="262.60526" y1="314.85553" x2="59.990082" y2="207.51936">
			<stop offset="0" stop-color="#8B0BEF"/>
			<stop offset="1" stop-color="#F603F4"/>
		</linearGradient>
	</defs>
	<path fill="url(#gradient_0)" transform="scale(1.00391 1.00391)" d="M201.981 444.639C195.483 443.522 189.09 440.721 182.98 438.319C47.1073 384.909 16.1621 205.538 127.146 108.298C131.078 104.853 148.411 89.1233 153.716 90.4628C165.859 93.5289 144.521 106.235 143.055 107.384C132.975 115.287 123.341 123.833 114.942 133.534C66.3612 189.648 54.6718 273.284 89.2023 339.404C115.259 389.299 153.296 418.973 206.147 435.514C202.945 436.195 198.786 432.549 196.092 433.711C195.595 436.48 193.064 439.873 193.403 440.514C194.845 443.236 200.362 442.723 201.981 444.639Z"/>
	<defs>
		<linearGradient id="gradient_1" gradientUnits="userSpaceOnUse" x1="447.32629" y1="300.71136" x2="204.39038" y2="236.49742">
			<stop offset="0" stop-color="#2411CF"/>
			<stop offset="1" stop-color="#AC0DFF"/>
		</linearGradient>
	</defs>
	<path fill="url(#gradient_1)" transform="scale(1.00391 1.00391)" d="M366.492 105.055C361.656 103.066 357.62 98.9594 353.089 96.3261C326.477 80.8625 297.861 70.8826 266.994 69.1058C263.784 68.921 255.499 69.3831 252.985 68.0378C247.928 65.3307 250.483 59.5172 255.26 58.6554C258.863 58.0053 266.55 58.9383 270.524 59.1929C305.509 61.4342 339.701 74.4745 368.386 94.3967C376.181 100.186 383.884 106.15 390.912 112.865C453.008 172.194 470.798 265.074 432.559 342.332C404.222 399.583 347.968 441.163 284.543 450.443C280.176 451.082 275.521 451.184 271.263 452.348C270.748 452.203 270.309 452.141 269.781 452.072L269.963 451.724C270.917 451.366 272.117 451.639 272.943 451.203C270.211 449.65 265.721 451.951 263.264 450.084C263.171 448.36 263.88 443.702 265.839 442.967C267.198 442.457 264.89 442.565 264.23 442.255C270.08 441.753 275.972 441.311 281.779 440.435C441.653 416.32 497.435 220.178 378.322 115.225C374.597 111.943 370.063 109.018 366.754 105.351L366.492 105.055Z"/>
	<path fill="#8E0AF0" transform="scale(1.00391 1.00391)" d="M335.516 275.645C333.61 277.456 328.309 280.357 325.71 282.02L300.785 297.94C270.994 316.997 241.493 336.6 211.346 355.088C203.739 359.754 194.153 357.531 192.322 348.208C191.392 343.471 191.973 334.225 191.983 329.116L191.982 181.248C191.969 175.136 190.479 164.506 194.237 159.307C204.315 145.364 226.024 165.13 235.948 171.601L323.335 227.6C326.222 229.467 329.358 231.247 332.05 233.385C340.509 238.363 363.364 249.058 355.09 261.681C353.403 264.256 339.182 273.742 335.516 275.645ZM322.979 272.093C330.374 265.713 340.165 262.246 347.422 255.549C342.924 251.894 337.649 249.114 332.843 245.879L332.648 245.77C327.56 242.894 322.87 239.156 317.943 235.994L222.171 174.929C218.878 172.807 206.431 163.436 202.774 163.967C200.888 165.738 201.978 203.251 201.979 208.243L201.985 338.212C201.976 341.862 200.353 349.598 206.235 346.218C210.85 343.566 215.335 340.574 219.841 337.733L302.849 284.622C306.05 282.605 321.027 272.712 322.979 272.093Z"/>
	<path fill="#2400EE" transform="scale(1.00391 1.00391)" d="M332.05 233.385C340.509 238.363 363.364 249.058 355.09 261.681C353.403 264.256 339.182 273.742 335.516 275.645L335.433 275.293C337.541 272.853 348.01 266.421 351.288 264.779L351.419 264.346L351.542 264.363L351.396 264.307L350.478 264.763C347.081 263.488 348.88 258.53 347.794 256.171L347.479 256.243L347.819 256.229L347.777 256.423C346.348 256.159 326.96 272.278 322.979 272.093C330.374 265.713 340.165 262.246 347.422 255.549C342.924 251.894 337.649 249.114 332.843 245.879C334.209 245.028 346.191 253.771 347.829 255.301L347.94 254.863L347.77 255.406C348.258 254.513 347.721 253.618 347.788 252.676C347.869 251.541 349.13 247.033 349.678 245.773C345.992 242.225 336.583 237.031 331.987 233.776L332.05 233.385Z"/>
</svg>
