<?xml version="1.0" encoding="utf-8" ?>
<svg xmlns="http://www.w3.org/2000/svg" xmlns:xlink="http://www.w3.org/1999/xlink" width="514" height="514">
	<path fill="#D400F1" transform="scale(1.00391 1.00391)" d="M161.957 151.88C159.209 149.662 148.952 140.478 148.762 137.588C149.799 134.379 157.585 128.36 160.548 126.541C158.995 131.02 148.924 134.015 149.64 138.557C152.119 141.92 161.36 147.18 161.957 151.88Z"/>
	<path fill="#D400F1" transform="scale(1.00391 1.00391)" d="M128.795 105.679C135.265 97.5541 160.518 82.8154 170.126 78.1906C196.054 65.7107 241.431 54.2368 271.011 59.0307L268.892 59.4491L268.852 59.6516C270.003 59.8768 278.734 60.2699 280.158 60.3091L280.136 60.7322L281.232 60.6452C285.451 60.3243 316.788 67.1462 318.594 69.5687L318.379 69.8464C316.942 68.7466 315.804 68.6024 314.63 69.867L314.339 69.4792L314.549 68.5311L314.188 68.3558L313.195 68.8666L312.741 68.205C310.659 68.7309 310.549 70.2757 311.494 71.7925C309.78 77.6403 312.887 72.1966 314.702 76.0336C313.802 76.2662 308.175 74.1943 306.78 73.81C301.399 72.3274 264.024 64.5892 259.979 66.9693L260.176 67.1977C219.784 66.3455 178.031 78.7126 145.568 103.097C141.688 106.011 138.217 109.607 133.629 111.425C131.41 109.935 129.887 108.118 128.795 105.679Z"/>
	<path fill="#2400EE" transform="scale(1.00391 1.00391)" d="M237.379 443.437C240.585 443.209 243.772 443.83 246.965 444.001C289.386 446.276 333.307 432.822 367.461 407.747C371.47 404.804 379.297 397.445 383.171 396.077C394.423 399.835 384.237 406.503 379.949 409.864C342.906 438.908 296.126 455.118 248.939 453.097C246.129 452.977 241.146 453.105 238.518 452.351L238.586 452.072L238.279 451.812C222.444 452.377 190.686 442.184 176.647 435.681C173.784 434.355 171.263 432.507 168.489 431.012C174.984 427.116 169.977 424.457 179.281 428.471C187.381 431.966 229.236 445.879 237.379 443.437Z"/>
	<defs>
		<linearGradient id="gradient_0" gradientUnits="userSpaceOnUse" x1="88.150948" y1="258.87161" x2="240.88814" y2="305.34708">
			<stop offset="0" stop-color="#EA00F9"/>
			<stop offset="1" stop-color="#8F0BF9"/>
		</linearGradient>
	</defs>
	<path fill="url(#gradient_0)" transform="scale(1.00391 1.00391)" d="M207.837 406.6C182.404 400.169 155.251 380.794 137.891 362.004C87.17 307.105 82.3505 224.179 125.175 163.485C126.806 161.174 135.083 148.722 137.979 149.099C141.648 149.576 156.664 166.305 159.967 169.597L224.639 233.978C228.22 237.542 232.062 240.943 235.412 244.726C232.261 243.898 222.715 232.577 219.725 229.616L146.794 157.303C144.804 155.313 140.291 148.785 136.928 149.989C132.734 151.491 121.068 172.781 117.888 178.196C116.429 180.678 113.241 184.658 113.432 187.669L113.835 187.879C115.299 187.393 122.574 177.635 123.425 175.937C126.404 169.991 133.078 163.267 138.441 160.016C139.546 160.382 208.512 229.894 212.356 233.895C215.982 237.667 230.483 250.461 231.721 253.958C228.515 251.045 225.505 247.877 222.435 244.819L156.564 178.903C150.412 172.764 144.444 166.423 138.221 160.358C72.9555 243.758 107.287 362.604 208.728 397.261C211.433 398.547 213.275 401.474 211.25 404.253C210.299 405.577 209.343 406.01 207.837 406.6Z"/>
	<path fill="#D400F1" transform="scale(1.00391 1.00391)" d="M208.728 397.261C211.433 398.547 213.275 401.474 211.25 404.253C210.596 403.825 211.33 403.256 211.471 402.669C210.527 402.71 207.466 407.1 206.908 403.878L207.37 403.987L206.859 403.764L205.919 404.284L205.655 403.887C205.738 401.577 206.414 398.262 208.728 397.261Z"/>
	<path fill="#D400F1" transform="scale(1.00391 1.00391)" d="M238.518 452.351C226.959 451.848 214.845 449.174 203.743 446.047C64.5207 406.836 11.2727 239.359 106.487 127.448C109.459 123.955 114.688 117.388 118.574 115.222C120.948 116.734 122.546 118.379 123.929 120.833C120.884 125.102 116.752 128.942 113.213 132.84C84.1744 164.838 68.0019 208.957 67.0416 252.048C65.0029 343.529 131.12 424.092 221.126 440.845C226.515 441.848 231.974 442.51 237.379 443.437C229.236 445.879 187.381 431.966 179.281 428.471C169.977 424.457 174.984 427.116 168.489 431.012C171.263 432.507 173.784 434.355 176.647 435.681C190.686 442.184 222.444 452.377 238.279 451.812L238.586 452.072L238.518 452.351Z"/>
	<defs>
		<linearGradient id="gradient_1" gradientUnits="userSpaceOnUse" x1="459.20392" y1="251.7952" x2="278.44205" y2="210.67506">
			<stop offset="0" stop-color="#4F0FE6"/>
			<stop offset="1" stop-color="#9B05FA"/>
		</linearGradient>
	</defs>
	<path fill="url(#gradient_1)" transform="scale(1.00391 1.00391)" d="M271.011 59.0307C278.647 59.2546 286.233 60.6561 293.709 62.1266C372.527 77.6305 436.987 142.275 450.998 221.641C460.385 274.822 447.026 330.156 414.534 373.41C411.452 377.513 398.3 398.909 394.581 384.207C396.817 378.877 403.017 373.52 406.652 368.889C452.764 310.135 456.594 224.552 418.558 160.893C385.752 105.986 324.715 67.7495 260.176 67.1977L259.979 66.9693C264.024 64.5892 301.399 72.3274 306.78 73.81C308.175 74.1943 313.802 76.2662 314.702 76.0336C312.887 72.1966 309.78 77.6403 311.494 71.7925C310.549 70.2757 310.659 68.7309 312.741 68.205L313.195 68.8666L314.188 68.3558L314.549 68.5311L314.339 69.4792L314.63 69.867C315.804 68.6024 316.942 68.7466 318.379 69.8464L318.594 69.5687C316.788 67.1462 285.451 60.3243 281.232 60.6452L280.136 60.7322L280.158 60.3091C278.734 60.2699 270.003 59.8768 268.852 59.6516L268.892 59.4491L271.011 59.0307Z"/>
	<path fill="#D400F1" transform="scale(1.00391 1.00391)" d="M231.721 253.958C230.483 250.461 215.982 237.667 212.356 233.895C208.512 229.894 139.546 160.382 138.441 160.016C133.078 163.267 126.404 169.991 123.425 175.937C122.574 177.635 115.299 187.393 113.835 187.879L113.432 187.669C113.241 184.658 116.429 180.678 117.888 178.196C121.068 172.781 132.734 151.491 136.928 149.989C140.291 148.785 144.804 155.313 146.794 157.303L219.725 229.616C222.715 232.577 232.261 243.898 235.412 244.726C238.511 247.582 241.353 250.765 244.346 253.736L350.951 359.848C354.028 362.977 357.481 365.844 360.443 369.06C366.277 375.395 355.516 380.307 350.529 383.948C324.192 403.178 287.772 415.507 255.016 414.575C252.178 414.494 249.343 413.316 249.498 409.945C249.775 403.913 257.969 405.624 261.952 405.518C293.584 404.678 325.779 391.99 350.472 372.582C343.703 365.679 336.755 358.981 329.944 352.128L238.599 260.907C236.939 259.236 232.819 255.706 231.721 253.958Z"/>
	<defs>
		<linearGradient id="gradient_2" gradientUnits="userSpaceOnUse" x1="418.84769" y1="239.27403" x2="141.42793" y2="207.31125">
			<stop offset="0" stop-color="#610CED"/>
			<stop offset="1" stop-color="#DF00FB"/>
		</linearGradient>
	</defs>
	<path fill="url(#gradient_2)" transform="scale(1.00391 1.00391)" d="M160.548 126.541C163.656 123.258 168.604 120.514 172.446 118.133C276.186 53.8401 413.469 127.536 416.506 251.079C417.412 287.931 403.659 331.695 377.765 358.839C374.138 362.64 372.226 361.81 368.772 358.413L167.401 157.323C165.64 155.582 163.368 153.913 161.957 151.88C161.36 147.18 152.119 141.92 149.64 138.557C148.924 134.015 158.995 131.02 160.548 126.541ZM168.489 131.349C165.788 133.389 162.988 135.372 160.548 137.722C163.183 140.432 166.126 143.017 168.489 145.967C170.494 147.114 179.067 156.11 181.298 158.306L373.483 350.003C378.422 344.495 382.593 338.145 386.339 331.785C435.357 248.544 394.425 141.733 304.414 111.201C255.249 94.5242 210.947 104.155 168.489 131.349Z"/>
	<path fill="#D400F1" transform="scale(1.00391 1.00391)" d="M168.489 145.967C166.478 145.38 158.722 138.499 159.895 136.021C161.459 135.404 166.981 131.281 168.489 131.349C165.788 133.389 162.988 135.372 160.548 137.722C163.183 140.432 166.126 143.017 168.489 145.967Z"/>
</svg>
