<?xml version="1.0" encoding="utf-8" ?>
<svg xmlns="http://www.w3.org/2000/svg" xmlns:xlink="http://www.w3.org/1999/xlink" width="514" height="514">
	<path fill="#D400F1" transform="scale(1.00391 1.00391)" d="M160.278 156.765C164.591 156.157 175.087 168.702 178.417 172.032L200.299 194.045C205.187 199.046 220.743 209.475 211.254 214.696C206.871 215.322 203.652 209.917 200.886 207.124L165.803 171.921C161.944 168.059 151.529 161.429 160.278 156.765Z"/>
	<path fill="#D400F1" transform="scale(1.00391 1.00391)" d="M238.939 91.3675C251.257 89.0132 264.578 90.0728 276.965 91.3675C322.566 98.0118 360.801 119.936 388.677 157.308C395.386 166.302 413.776 195.484 412.341 202.872C411.907 205.106 408.954 206.557 406.859 205.972C403.62 205.068 402.055 197.682 400.921 194.968C382.884 151.781 343.189 117.416 298.334 104.799C296.002 104.143 293.601 103.636 291.305 102.866C287.865 99.0559 260.811 98.8636 252.608 98.3877C253.884 97.7698 259.335 96.7639 260.109 98.1749C261.903 98.3633 268.808 98.2172 269.647 97.1544L269.532 96.9826C268.401 97.3836 270.281 93.5265 270.238 92.528L269.885 92.4739C269.291 93.0116 268.735 93.4483 268.029 93.8317L266.611 94.6096C263.19 93.1031 265.45 92.8265 265.691 91.5537C262.328 90.4674 261.683 90.8908 259.271 91.7573L258.612 91.2079C256.67 91.1623 253.109 91.9386 252.512 91.8392L252.249 91.3675C252.159 91.4244 239.708 91.915 238.939 91.3675Z"/>
	<path fill="#2400EE" transform="scale(1.00391 1.00391)" d="M119.416 388.267L120.711 389.624C156.728 426.864 210.833 448.594 262.749 445.983C266.641 445.788 270.568 445.359 274.464 445.431L274.591 445.748C292.66 443.385 306.586 440.262 324.08 434.23C325.745 433.656 327.032 432.405 328.887 432.755C327.202 434.659 326.945 437.033 325.636 439.104C321.022 446.402 291.784 451.419 284.604 452.388C282.392 452.687 268.848 453.345 268.418 454.775C218.762 456.077 173.911 444.493 133.869 413.296C126.4 407.476 119.661 401.025 112.894 394.428C115.018 392.332 117.098 390.151 119.416 388.267Z"/>
	<path fill="#D400F1" transform="scale(1.00391 1.00391)" d="M299.822 406.343C375.848 382.411 422.764 312.755 411.517 233.477C411.081 230.404 408.171 222.761 412.643 221.381C424.38 217.762 422.041 260.324 421.669 266.406C417.54 333.857 367.742 398.102 301.743 414.96L301.075 415.125C299.474 414.316 295.582 416.126 293.855 416.522C264.075 423.348 233.97 421.617 204.649 412.961L205.195 412.768L205.386 412.427L206.418 412.813C207.775 411.786 209.341 409.287 209.371 407.574C210.245 407.618 211.136 408.164 211.026 407.053L210.809 406.935L210.141 407.154C209.826 406.87 209.751 406.649 209.579 406.269L209.716 406.03C230.421 415.174 268.638 413.879 290.429 409.365C292.184 409.002 299.496 407.371 300.334 406.463L299.822 406.343Z"/>
	<defs>
		<linearGradient id="gradient_0" gradientUnits="userSpaceOnUse" x1="43.029102" y1="273.02298" x2="278.4111" y2="158.50446">
			<stop offset="0" stop-color="#5A0BEA"/>
			<stop offset="1" stop-color="#A40CFA"/>
		</linearGradient>
	</defs>
	<path fill="url(#gradient_0)" transform="scale(1.00391 1.00391)" d="M100.468 380.935C96.2584 375.045 91.7162 369.377 87.7946 363.283C8.85423 240.612 86.3403 78.9977 228.515 58.1013C230.848 59.7728 229.431 59.6431 227.926 61.2797C226.816 62.4881 226.177 64.1919 225.025 65.3221C223.956 66.371 222.197 66.7956 221.169 67.8301C222.586 68.2983 239.889 64.4688 241.353 65.1187C237.273 66.2422 233.135 66.5637 228.965 67.1892C142.834 80.1095 73.7056 151.211 66.2129 238.369C62.0781 286.466 76.0043 337.391 107.338 374.652C105.191 376.851 102.695 378.794 100.468 380.935Z"/>
	<path fill="#D400F1" transform="scale(1.00391 1.00391)" d="M350.725 156.765C353.204 156.185 356.44 157.305 356.337 160.392C356.215 164.035 346.766 171.58 344.202 174.139L262.455 255.683L262.775 255.943C265.771 258.339 268.394 261.431 271.088 264.172L350.612 343.557C354.993 347.885 355.816 354.53 349.307 353.724C345.481 353.25 333.701 339.487 330.649 336.467L264.907 270.849C261.996 267.903 258.699 265.13 256.079 261.933C252.006 265.416 248.241 269.281 244.423 273.039L225.006 292.418C213.077 304.66 200.756 316.537 188.732 328.693L172.071 345.258C169.567 347.734 165.594 353.468 161.825 353.925C159.441 354.214 157.196 351.973 157.101 349.658C156.98 346.698 180.017 324.893 182.961 322.006L228.938 276.364C235.727 269.537 243.078 262.925 249.417 255.683C240.848 245.619 228.318 236.365 220.696 226.579C217.894 222.98 222.216 217.034 226.167 219.725C229.024 221.67 232.032 225.494 234.505 228.034C241.072 234.779 249.155 243.494 256.079 249.41C260.693 244.528 265.541 239.887 270.286 235.135L334.619 171.204C338.489 167.344 345.716 158.048 350.725 156.765Z"/>
	<defs>
		<linearGradient id="gradient_1" gradientUnits="userSpaceOnUse" x1="96.941849" y1="305.89413" x2="320.92722" y2="201.07356">
			<stop offset="0" stop-color="#630BEC"/>
			<stop offset="1" stop-color="#B20CFC"/>
		</linearGradient>
	</defs>
	<path fill="url(#gradient_1)" transform="scale(1.00391 1.00391)" d="M252.249 91.3675L252.512 91.8392C253.109 91.9386 256.67 91.1623 258.612 91.2079L259.271 91.7573C261.683 90.8908 262.328 90.4674 265.691 91.5537C265.45 92.8265 263.19 93.1031 266.611 94.6096L268.029 93.8317C268.735 93.4483 269.291 93.0116 269.885 92.4739L270.238 92.528C270.281 93.5265 268.401 97.3836 269.532 96.9826L269.647 97.1544C268.808 98.2172 261.903 98.3633 260.109 98.1749C259.335 96.7639 253.884 97.7698 252.608 98.3877C260.811 98.8636 287.865 99.0559 291.305 102.866C287.303 102.602 282.513 101.012 278.339 100.405C269.678 99.1473 260.982 98.9681 252.249 98.9951L250.367 98.9951C249.487 99.0536 248.646 99.1362 247.772 98.9951C244.432 99.4366 241.041 99.9359 237.672 100.065C235.065 100.963 232.127 100.928 229.422 101.407C140.863 117.086 80.8659 206.465 103.731 294.003C125.836 378.632 211.325 429.73 296.253 407.321L299.822 406.343L300.334 406.463C299.496 407.371 292.184 409.002 290.429 409.365C268.638 413.879 230.421 415.174 209.716 406.03L209.579 406.269C209.751 406.649 209.826 406.87 210.141 407.154L210.809 406.935L211.026 407.053C211.136 408.164 210.245 407.618 209.371 407.574C209.341 409.287 207.775 411.786 206.418 412.813L205.386 412.427L205.195 412.768L204.649 412.961C233.97 421.617 264.075 423.348 293.855 416.522C295.582 416.126 299.474 414.316 301.075 415.125C240.384 433.444 171.382 411.89 130.347 363.785C46.9099 265.973 101.015 120.663 222.026 93.6777C227.293 92.5031 233.549 90.9364 238.939 91.3675C239.708 91.915 252.159 91.4244 252.249 91.3675Z"/>
	<path fill="#D400F1" transform="scale(1.00391 1.00391)" d="M250.367 98.9951C244.9 98.6216 251.368 97.5271 252.404 98.4943L252.249 98.9951L250.367 98.9951Z"/>
	<path fill="#D400F1" transform="scale(1.00391 1.00391)" d="M237.672 100.065C238.664 98.528 246.608 97.8524 247.772 98.9951C244.432 99.4366 241.041 99.9359 237.672 100.065Z"/>
	<defs>
		<linearGradient id="gradient_2" gradientUnits="userSpaceOnUse" x1="266.45444" y1="253.32016" x2="449.14972" y2="208.56992">
			<stop offset="0" stop-color="#940AFB"/>
			<stop offset="1" stop-color="#F60BF6"/>
		</linearGradient>
	</defs>
	<path fill="url(#gradient_2)" transform="scale(1.00391 1.00391)" d="M228.515 58.1013C336.962 43.3277 438.773 120.308 453.484 228.667C468.029 335.801 393.259 438.418 284.618 452.91C279.271 453.623 273.79 454.355 268.418 454.775C268.848 453.345 282.392 452.687 284.604 452.388C291.784 451.419 321.022 446.402 325.636 439.104C326.945 437.033 327.202 434.659 328.887 432.755C327.032 432.405 325.745 433.656 324.08 434.23C306.586 440.262 292.66 443.385 274.591 445.748L274.464 445.431C277.056 444.51 281.144 444.391 283.951 443.99C387.851 429.147 460.035 330.594 444.969 227.863C431.804 138.098 350.624 66.0711 259.947 65.0321C254.302 64.9674 246.692 66.5511 241.353 65.1187C239.889 64.4688 222.586 68.2983 221.169 67.8301C222.197 66.7956 223.956 66.371 225.025 65.3221C226.177 64.1919 226.816 62.4881 227.926 61.2797C229.431 59.6431 230.848 59.7728 228.515 58.1013Z"/>
</svg>
